<svg id="visual" viewBox="0 0 900 600" width="900" height="600" xmlns="http://www.w3.org/2000/svg" xmlns:xlink="http://www.w3.org/1999/xlink" version="1.1"><rect x="0" y="0" width="900" height="600" fill="#0C231E"></rect><path d="M0 362L16.7 367.7C33.3 373.3 66.7 384.7 100 405.5C133.3 426.3 166.7 456.7 200 446C233.3 435.3 266.7 383.7 300 393.3C333.3 403 366.7 474 400 459.5C433.3 445 466.7 345 500 333.8C533.3 322.7 566.7 400.3 600 410.8C633.3 421.3 666.7 364.7 700 347.5C733.3 330.3 766.7 352.7 800 381.3C833.3 410 866.7 445 883.3 462.5L900 480L900 601L883.3 601C866.7 601 833.3 601 800 601C766.7 601 733.3 601 700 601C666.7 601 633.3 601 600 601C566.7 601 533.3 601 500 601C466.7 601 433.3 601 400 601C366.7 601 333.3 601 300 601C266.7 601 233.3 601 200 601C166.7 601 133.3 601 100 601C66.7 601 33.3 601 16.7 601L0 601Z" fill="#13322B" stroke-linecap="round" stroke-linejoin="miter"></path></svg>